<svg xmlns="http://www.w3.org/2000/svg" width="410" height="180" viewBox="0 0 410 180" font-family="-apple-system, Segoe UI, Roboto, sans-serif"><rect width="100%" height="100%" fill="#1a1b27" rx="12"/>
<text x="18" y="26" fill="#c0caf5" font-size="13" font-weight="700">🧪 Top Languages</text>
<text x="392" y="26" text-anchor="end" fill="#565f89" font-size="11">across public repos</text>
<circle cx="22" cy="44" r="4" fill="#f1e05a"/>
<text x="34" y="48" fill="#ffffff" font-size="12" font-weight="600">JavaScript</text>
<rect x="128" y="39" width="224" height="10" rx="5" fill="#24283b"/>
<rect x="128" y="39" width="93.1" height="10" rx="5" fill="#f1e05a"/>
<text x="392" y="48" text-anchor="end" fill="#c0caf5" font-size="11" font-weight="700">41.6%</text>
<circle cx="22" cy="66" r="4" fill="#b07219"/>
<text x="34" y="70" fill="#ffffff" font-size="12" font-weight="600">Java</text>
<rect x="128" y="61" width="224" height="10" rx="5" fill="#24283b"/>
<rect x="128" y="61" width="71.4" height="10" rx="5" fill="#b07219"/>
<text x="392" y="70" text-anchor="end" fill="#c0caf5" font-size="11" font-weight="700">31.9%</text>
<circle cx="22" cy="88" r="4" fill="#41b883"/>
<text x="34" y="92" fill="#ffffff" font-size="12" font-weight="600">Vue</text>
<rect x="128" y="83" width="224" height="10" rx="5" fill="#24283b"/>
<rect x="128" y="83" width="26.7" height="10" rx="5" fill="#41b883"/>
<text x="392" y="92" text-anchor="end" fill="#c0caf5" font-size="11" font-weight="700">11.9%</text>
<circle cx="22" cy="110" r="4" fill="#e34c26"/>
<text x="34" y="114" fill="#ffffff" font-size="12" font-weight="600">HTML</text>
<rect x="128" y="105" width="224" height="10" rx="5" fill="#24283b"/>
<rect x="128" y="105" width="20.9" height="10" rx="5" fill="#e34c26"/>
<text x="392" y="114" text-anchor="end" fill="#c0caf5" font-size="11" font-weight="700">9.3%</text>
<circle cx="22" cy="132" r="4" fill="#663399"/>
<text x="34" y="136" fill="#ffffff" font-size="12" font-weight="600">CSS</text>
<rect x="128" y="127" width="224" height="10" rx="5" fill="#24283b"/>
<rect x="128" y="127" width="11.0" height="10" rx="5" fill="#663399"/>
<text x="392" y="136" text-anchor="end" fill="#c0caf5" font-size="11" font-weight="700">4.9%</text>
<circle cx="22" cy="154" r="4" fill="#565f89"/>
<text x="34" y="158" fill="#ffffff" font-size="12" font-weight="600">Other</text>
<rect x="128" y="149" width="224" height="10" rx="5" fill="#24283b"/>
<rect x="128" y="149" width="0.9" height="10" rx="5" fill="#565f89"/>
<text x="392" y="158" text-anchor="end" fill="#c0caf5" font-size="11" font-weight="700">0.4%</text>
</svg>